<?xml version="1.0" encoding="utf-8"?>
<!-- Generator: Adobe Illustrator 16.0.0, SVG Export Plug-In . SVG Version: 6.00 Build 0)  -->
<!DOCTYPE svg PUBLIC "-//W3C//DTD SVG 1.1//EN" "http://www.w3.org/Graphics/SVG/1.1/DTD/svg11.dtd">
<svg version="1.1" id="圖層_1" xmlns="http://www.w3.org/2000/svg" xmlns:xlink="http://www.w3.org/1999/xlink" x="0px" y="0px"
	 width="500px" height="500px" viewBox="0 0 500 500" enable-background="new 0 0 500 500" xml:space="preserve">
<g xmlns="http://www.w3.org/2000/svg">
	<polyline xmlns="http://www.w3.org/2000/svg" clip-rule="evenodd" points="129.577,107.389 60.601,211.915 225.361,187.436    129.577,107.389  " stroke="currentColor" stroke-width="2.25" stroke-miterlimit="10" fill-rule="evenodd" fill="none"/>
	<polyline xmlns="http://www.w3.org/2000/svg" fill="none" clip-rule="evenodd" stroke="currentColor" stroke-width="2.25" stroke-miterlimit="10" points="129.577,107.389 263.668,15.75 225.361,187.436    129.577,107.389  "/>
	<polyline xmlns="http://www.w3.org/2000/svg" fill-rule="evenodd" clip-rule="evenodd" fill="none" points="225.361,187.436 382.59,163.899 263.668,15.75    225.361,187.436  " stroke="currentColor" stroke-width="2.25" stroke-miterlimit="10"/>
	<polyline xmlns="http://www.w3.org/2000/svg" fill-rule="evenodd" clip-rule="evenodd" fill="none" stroke="currentColor" stroke-width="2.25" stroke-miterlimit="10" points="225.361,187.436 382.59,163.899 333.633,271.229    225.361,187.436  "/>
	<polyline xmlns="http://www.w3.org/2000/svg" fill-rule="evenodd" clip-rule="evenodd" fill="none" points="225.361,187.436 189.404,351.856 333.633,271.229    225.361,187.436  " stroke="currentColor" stroke-width="2.25" stroke-miterlimit="10"/>
	<line fill="none" stroke="currentColor" stroke-width="2.25" stroke-miterlimit="10" x1="6.936" y1="191.202" x2="263.668" y2="15.75"/>
	
		<line fill="none" stroke="currentColor" stroke-width="2.25" stroke-miterlimit="10" x1="60.601" y1="211.915" x2="182.994" y2="26.441"/>
	
		<line fill="none" stroke="currentColor" stroke-width="2.25" stroke-miterlimit="10" x1="182.994" y1="26.441" x2="214.706" y2="49.211"/>
	
		<line fill="none" stroke="currentColor" stroke-width="2.25" stroke-miterlimit="10" x1="60.601" y1="211.915" x2="225.361" y2="187.436"/>
	
		<line fill="none" stroke="currentColor" stroke-width="2.25" stroke-miterlimit="10" x1="225.361" y1="187.436" x2="263.668" y2="15.75"/>
	
		<line fill="none" stroke="currentColor" stroke-width="2.25" stroke-miterlimit="10" x1="225.361" y1="187.436" x2="333.633" y2="271.229"/>
	
		<line fill="none" stroke="currentColor" stroke-width="2.25" stroke-miterlimit="10" x1="333.633" y1="271.229" x2="62.483" y2="422.81"/>
	
		<line fill="none" stroke="currentColor" stroke-width="2.25" stroke-miterlimit="10" x1="311.037" y1="484.006" x2="60.601" y2="211.915"/>
	
		<line fill="none" stroke="currentColor" stroke-width="2.25" stroke-miterlimit="10" x1="189.404" y1="351.856" x2="92.611" y2="268.404"/>
	
		<line fill="none" stroke="currentColor" stroke-width="2.25" stroke-miterlimit="10" x1="92.611" y1="268.404" x2="60.601" y2="211.915"/>
	
		<line fill="none" stroke="currentColor" stroke-width="2.25" stroke-miterlimit="10" x1="92.611" y1="268.404" x2="62.483" y2="422.81"/>
	
		<line fill="none" stroke="currentColor" stroke-width="2.25" stroke-miterlimit="10" x1="89.642" y1="283.624" x2="6.936" y2="191.202"/>
	
		<line fill="none" stroke="currentColor" stroke-width="2.25" stroke-miterlimit="10" x1="92.611" y1="268.404" x2="6.936" y2="191.202"/>
	
		<line fill="none" stroke="currentColor" stroke-width="2.25" stroke-miterlimit="10" x1="230.068" y1="435.049" x2="189.404" y2="351.856"/>
	
		<line fill="none" stroke="currentColor" stroke-width="2.25" stroke-miterlimit="10" x1="211.77" y1="397.609" x2="311.037" y2="484.006"/>
	
		<line fill="none" stroke="currentColor" stroke-width="2.25" stroke-miterlimit="10" x1="211.77" y1="397.609" x2="62.483" y2="422.81"/>
	
		<line fill="none" stroke="currentColor" stroke-width="2.25" stroke-miterlimit="10" x1="197.855" y1="399.958" x2="230.068" y2="435.049"/>
	
		<line fill="none" stroke="currentColor" stroke-width="2.25" stroke-miterlimit="10" x1="230.068" y1="435.049" x2="245.027" y2="426.556"/>
	
		<line fill="none" stroke="currentColor" stroke-width="2.25" stroke-miterlimit="10" x1="311.037" y1="484.006" x2="382.59" y2="163.899"/>
	
		<line fill="none" stroke="currentColor" stroke-width="2.25" stroke-miterlimit="10" x1="189.404" y1="351.856" x2="493.686" y2="302.298"/>
	
		<line fill="none" stroke="currentColor" stroke-width="2.25" stroke-miterlimit="10" x1="311.037" y1="484.006" x2="356.752" y2="371.846"/>
	
		<line fill="none" stroke="currentColor" stroke-width="2.25" stroke-miterlimit="10" x1="356.752" y1="371.846" x2="493.686" y2="302.298"/>
	
		<line fill="none" stroke="currentColor" stroke-width="2.25" stroke-miterlimit="10" x1="333.633" y1="271.229" x2="356.752" y2="371.846"/>
	
		<line fill="none" stroke="currentColor" stroke-width="2.25" stroke-miterlimit="10" x1="422.847" y1="75.642" x2="400.812" y2="186.598"/>
	
		<line fill="none" stroke="currentColor" stroke-width="2.25" stroke-miterlimit="10" x1="333.633" y1="271.229" x2="422.847" y2="75.642"/>
	
		<line fill="none" stroke="currentColor" stroke-width="2.25" stroke-miterlimit="10" x1="263.668" y1="15.75" x2="493.686" y2="302.298"/>
	
		<line fill="none" stroke="currentColor" stroke-width="2.25" stroke-miterlimit="10" x1="422.847" y1="75.642" x2="321.842" y2="88.22"/>
</g>
</svg>

